<svg width="177" height="56" viewBox="0 0 177 56" fill="none" xmlns="http://www.w3.org/2000/svg">
<path d="M25.6979 0.995658L24.2799 2.40681V12.5555C25.9535 12.1064 27.6829 11.8984 29.4156 11.9379C34.1951 11.9379 38.0022 13.3502 40.7441 16.1736C43.486 18.9971 44.9074 22.8824 44.9074 27.8226C44.9074 32.7628 43.4918 36.5602 40.6582 39.2945C37.8246 42.0289 33.753 43.4412 28.4398 43.4412C25.4519 43.5455 22.4659 43.1885 19.5875 42.3829C18.8504 42.2255 18.1946 41.8092 17.7396 41.2101C17.2846 40.6109 17.0609 39.8687 17.109 39.1187V9.55395L0.99881 25.6156C0.358778 26.2631 0 27.1356 0 28.0447C0 28.9537 0.358778 29.8262 0.99881 30.4737L25.6097 55.0081C26.2604 55.6439 27.1353 56 28.0464 56C28.9576 56 29.8324 55.6439 30.4831 55.0081L55.0894 30.4702C55.4407 30.1726 55.7244 29.8038 55.9217 29.3884C56.119 28.973 56.2254 28.5206 56.2337 28.061C56.2421 27.6015 56.1522 27.1455 55.9701 26.7233C55.788 26.301 55.5178 25.9223 55.1776 25.6122L30.5655 0.995658C29.916 0.357645 29.0407 0 28.1288 0C27.2169 0 26.3416 0.357645 25.6921 0.995658" fill="#00719E"/>
<path d="M24.1919 18.7392V36.7372C25.5627 37.1824 26.9998 37.3905 28.4411 37.3525C31.5392 37.3525 33.8413 36.4711 35.2592 34.794C36.8521 32.7985 37.6414 30.2828 37.4732 27.7382C37.626 25.1955 36.8384 22.6851 35.2592 20.6824C33.7508 19.0064 31.5403 18.1239 28.4411 18.1239C26.9989 18.0732 25.5595 18.2825 24.1919 18.7415" fill="#00719E"/>
<path d="M68.877 48.7795L64.4503 36.7766C64.379 36.6095 64.3491 36.4278 64.3633 36.2468C64.3547 36.1519 64.3672 36.0563 64.3998 35.9668C64.4324 35.8772 64.4844 35.7959 64.552 35.7286C64.6197 35.6612 64.7013 35.6096 64.7912 35.5772C64.8811 35.5448 64.9771 35.5326 65.0723 35.5412H65.6014C65.8779 35.5264 66.1513 35.6058 66.3765 35.7664C66.6017 35.927 66.7654 36.1593 66.8406 36.425L70.4713 46.9253L74.0115 36.425C74.0764 36.1532 74.2377 35.914 74.4657 35.7515C74.6937 35.5891 74.973 35.5144 75.252 35.5412H75.694C76.2266 35.5412 76.403 35.8073 76.403 36.2468C76.4105 36.4277 76.3801 36.6081 76.3137 36.7766L71.8881 48.7795C71.8122 49.0448 71.6481 49.2766 71.4228 49.4367C71.1974 49.5969 70.9241 49.6759 70.6477 49.6609H70.1186C69.5883 49.7499 69.1451 49.3971 68.8793 48.7795" fill="#0C233A"/>
<path d="M78.6161 32.0989C78.3186 31.8308 78.1245 31.4674 78.0677 31.0717C78.0108 30.6759 78.0946 30.2728 78.3047 29.9322C78.5147 29.5917 78.8377 29.3351 79.2176 29.2071C79.5976 29.0791 80.0105 29.0876 80.3847 29.2313C80.759 29.375 81.071 29.6447 81.2667 29.9936C81.4623 30.3426 81.5293 30.7489 81.456 31.1419C81.3826 31.5349 81.1736 31.89 80.8651 32.1455C80.5567 32.401 80.1682 32.5408 79.7672 32.5407C79.3442 32.5285 78.9381 32.3726 78.6161 32.0989ZM78.6161 48.7794V36.5128C78.6022 36.3818 78.6179 36.2494 78.662 36.1252C78.7061 36.001 78.7774 35.8882 78.8709 35.7951C78.9643 35.702 79.0774 35.6308 79.202 35.5869C79.3266 35.5429 79.4594 35.5273 79.5908 35.5412H79.9459C80.0772 35.5275 80.2099 35.5433 80.3343 35.5873C80.4587 35.6313 80.5717 35.7025 80.665 35.7956C80.7583 35.8887 80.8296 36.0014 80.8736 36.1255C80.9176 36.2496 80.9332 36.3819 80.9194 36.5128V48.6915C80.9331 48.8223 80.9173 48.9544 80.8732 49.0784C80.8291 49.2023 80.7578 49.3149 80.6645 49.4078C80.5712 49.5008 80.4583 49.5719 80.334 49.6158C80.2097 49.6598 80.0771 49.6755 79.9459 49.6619H79.5908C79.4645 49.694 79.3322 49.6944 79.2057 49.663C79.0792 49.6317 78.9624 49.5696 78.8659 49.4823C78.7693 49.395 78.696 49.2852 78.6524 49.1627C78.6088 49.0403 78.5964 48.9078 78.6161 48.7794Z" fill="#0C233A"/>
<path d="M84.7253 48.7795V37.3943C84.6992 37.1171 84.7742 36.8398 84.9366 36.6133C85.099 36.3868 85.3379 36.2263 85.6095 36.1613C87.0805 35.6116 88.6418 35.3421 90.2126 35.3666C90.6871 35.339 91.1632 35.3689 91.6305 35.4557C92.1608 35.5424 92.5159 35.7194 92.5159 36.1624V36.691C92.4797 36.9156 92.3884 37.1278 92.2501 37.3087C92.0672 37.4305 91.8504 37.4917 91.6305 37.4834H90.3019C89.2234 37.4612 88.1482 37.6104 87.1168 37.9252V48.8651C87.1307 48.996 87.115 49.1284 87.071 49.2526C87.0269 49.3767 86.9555 49.4894 86.862 49.5824C86.7686 49.6755 86.6554 49.7465 86.5308 49.7903C86.4063 49.8341 86.2734 49.8496 86.1421 49.8356H85.7859C85.0788 49.7492 84.7253 49.3979 84.7253 48.7795Z" fill="#0C233A"/>
<path d="M95.4372 44.7182V37.4832H94.0192C93.3996 37.4832 93.0469 37.216 93.0469 36.6885V36.3415C93.0469 35.8118 93.395 35.5469 94.0192 35.5469H95.4372V32.8044C95.4233 32.6736 95.4389 32.5414 95.4829 32.4174C95.5269 32.2934 95.5982 32.1808 95.6916 32.0879C95.7849 31.9949 95.898 31.924 96.0224 31.8802C96.1468 31.8365 96.2795 31.8211 96.4107 31.8351H96.7658C96.897 31.8211 97.0297 31.8365 97.1542 31.8803C97.2787 31.924 97.3918 31.9949 97.4852 32.0878C97.5786 32.1808 97.6501 32.2933 97.6942 32.4173C97.7384 32.5413 97.7542 32.6735 97.7405 32.8044V35.54H102.081C102.7 35.54 103.055 35.8048 103.055 36.3346V36.7765C103.055 37.3051 102.707 37.5699 102.081 37.5699H97.7428V44.5413C97.6613 45.5349 97.9104 46.5276 98.4517 47.3659C98.7457 47.6428 99.0939 47.8564 99.4744 47.9931C99.855 48.1298 100.26 48.1868 100.663 48.1605C101.079 48.1691 101.494 48.1397 101.904 48.0726C102.083 48.0584 102.261 48.029 102.435 47.9847C102.626 47.9888 102.811 48.0496 102.967 48.1593C103.143 48.2484 103.143 48.4254 103.231 48.6903V48.7747C103.252 48.9232 103.282 49.0704 103.321 49.2154C103.321 49.5624 103.143 49.7452 102.7 49.8331C101.978 50.0248 101.233 50.1144 100.487 50.0991C97.122 50.01 95.4418 48.2484 95.4418 44.7148" fill="#0C233A"/>
<path d="M105.706 43.6612V36.6054C105.692 36.4748 105.708 36.3426 105.752 36.2187C105.796 36.0949 105.867 35.9823 105.96 35.8894C106.054 35.7965 106.167 35.7255 106.291 35.6817C106.415 35.6379 106.548 35.6223 106.679 35.6362H107.033C107.164 35.6223 107.296 35.6379 107.421 35.6817C107.545 35.7255 107.658 35.7965 107.751 35.8894C107.845 35.9823 107.916 36.0948 107.96 36.2187C108.004 36.3426 108.02 36.4747 108.006 36.6054V43.2136C107.983 43.9208 108.013 44.6287 108.096 45.3315C108.192 45.8576 108.371 46.3652 108.627 46.8351C108.911 47.2945 109.349 47.6385 109.864 47.8056C110.614 48.0019 111.389 48.0914 112.165 48.0716C113.087 48.0755 114.007 47.986 114.911 47.8044V36.5129C114.897 36.382 114.913 36.2496 114.957 36.1254C115.001 36.0012 115.072 35.8884 115.165 35.7953C115.259 35.7021 115.372 35.6309 115.496 35.587C115.621 35.5431 115.754 35.5274 115.885 35.5413H116.233C116.364 35.5274 116.497 35.543 116.622 35.587C116.746 35.6309 116.859 35.7021 116.952 35.7953C117.046 35.8885 117.117 36.0013 117.16 36.1255C117.204 36.2497 117.22 36.3821 117.205 36.5129V48.3377C117.225 48.6176 117.135 48.8942 116.953 49.1086C116.772 49.3229 116.513 49.4581 116.233 49.4851C114.894 49.7565 113.532 49.9029 112.165 49.9223C109.862 49.9223 108.181 49.4816 107.207 48.5112C106.145 47.6286 105.698 46.0405 105.698 43.6531" fill="#0C233A"/>
<path d="M121.376 37.3941C121.278 37.2327 121.218 37.0518 121.198 36.8643C121.199 36.6821 121.26 36.5051 121.372 36.3613C121.485 36.2176 121.642 36.1154 121.819 36.0709C123.138 35.5279 124.554 35.2575 125.98 35.2762C126.762 35.193 127.554 35.276 128.301 35.5196C129.049 35.7632 129.737 36.162 130.319 36.6897C131.318 37.967 131.793 39.5758 131.645 41.1892V48.3375C131.665 48.6174 131.575 48.894 131.393 49.1084C131.211 49.3227 130.953 49.4578 130.673 49.4849C129.223 49.8301 127.738 50.0078 126.247 50.0147C122.173 50.0147 120.051 48.511 120.051 45.4261C120.014 44.7789 120.14 44.1326 120.418 43.5466C120.696 42.9605 121.117 42.4534 121.643 42.0717C122.984 41.2152 124.567 40.8128 126.157 40.9243C127.236 40.9024 128.312 41.0512 129.345 41.365V40.9243C129.406 40.4177 129.358 39.904 129.206 39.417C129.053 38.9301 128.799 38.4807 128.46 38.0985C127.745 37.4945 126.829 37.1796 125.893 37.216C124.742 37.1986 123.598 37.4089 122.528 37.8348C122.356 37.908 122.179 37.9676 121.998 38.0129C121.82 38.0129 121.555 37.8348 121.378 37.3929M129.435 47.8031V43.3047C128.485 43.037 127.5 42.9199 126.514 42.9577C123.769 42.9577 122.441 43.8391 122.441 45.6042C122.424 45.9961 122.504 46.3861 122.674 46.7399C122.843 47.0937 123.098 47.4004 123.415 47.633C124.399 48.1311 125.503 48.3458 126.603 48.253C127.752 48.0761 128.726 47.987 129.435 47.8112" fill="#0C233A"/>
<path d="M135.452 48.7795V30.512C135.438 30.3811 135.454 30.2488 135.498 30.1247C135.542 30.0007 135.613 29.888 135.706 29.7948C135.8 29.7017 135.913 29.6306 136.037 29.5865C136.161 29.5425 136.294 29.5268 136.425 29.5404H136.781C136.912 29.5268 137.045 29.5425 137.169 29.5865C137.293 29.6306 137.406 29.7017 137.5 29.7948C137.593 29.888 137.664 30.0007 137.708 30.1247C137.752 30.2488 137.768 30.3811 137.754 30.512V48.7795C137.768 48.9103 137.752 49.0425 137.708 49.1664C137.664 49.2903 137.592 49.4029 137.499 49.4959C137.406 49.5888 137.293 49.6599 137.169 49.7039C137.044 49.7478 136.912 49.7636 136.781 49.7499H136.425C136.293 49.7715 136.157 49.7613 136.029 49.7201C135.901 49.679 135.784 49.6081 135.689 49.5133C135.594 49.4185 135.523 49.3025 135.482 49.1749C135.441 49.0473 135.43 48.9118 135.452 48.7795Z" fill="#0C233A"/>
<path d="M64.3634 25.1289V7.30323C64.3495 7.17239 64.3652 7.04012 64.4092 6.91609C64.4532 6.79206 64.5245 6.6794 64.6178 6.58637C64.7111 6.49334 64.8241 6.42229 64.9486 6.37841C65.073 6.33453 65.2057 6.31894 65.3369 6.33277H65.685C65.8163 6.31894 65.949 6.33453 66.0734 6.37841C66.1978 6.42229 66.3108 6.49334 66.4042 6.58637C66.4975 6.6794 66.5688 6.79206 66.6128 6.91609C66.6568 7.04012 66.6724 7.17239 66.6586 7.30323V12.4204C67.552 12.1746 68.4761 12.0578 69.4028 12.0734C70.3485 12.0109 71.2966 12.152 72.1827 12.4871C73.0689 12.8222 73.8723 13.3434 74.5385 14.0155C75.8412 15.4979 76.5079 17.431 76.395 19.3987C76.465 20.3815 76.3279 21.3681 75.9926 22.295C75.6572 23.2219 75.1311 24.0686 74.448 24.7807C72.8841 26.1371 70.8519 26.8333 68.782 26.7216C67.5882 26.7111 66.3996 26.564 65.2395 26.2832C64.6222 26.1942 64.3564 25.8414 64.3564 25.1346M66.5692 14.2803V24.4291C67.3198 24.6251 68.0945 24.7147 68.8702 24.6951C69.5841 24.7668 70.3051 24.6769 70.9794 24.4322C71.6536 24.1874 72.2638 23.7942 72.7643 23.2816C73.6693 22.1635 74.1125 20.7434 74.0035 19.3107C74.07 17.8829 73.6314 16.4771 72.7643 15.3387C72.2582 14.834 71.6472 14.446 70.9744 14.2022C70.3016 13.9584 69.5833 13.8646 68.8702 13.9275C68.0957 13.9871 67.3267 14.1031 66.5692 14.2746" fill="#0C233A"/>
<path d="M79.5861 8.89127C79.2877 8.62324 79.0928 8.25952 79.0353 7.86323C78.9778 7.46693 79.0613 7.06307 79.2712 6.72171C79.4812 6.38036 79.8044 6.12304 80.1848 5.99441C80.5652 5.86579 80.9788 5.87397 81.3538 6.01753C81.7287 6.1611 82.0415 6.43099 82.2377 6.78038C82.4339 7.12977 82.5013 7.53662 82.428 7.93032C82.3548 8.32403 82.1456 8.67976 81.8367 8.93578C81.5279 9.19181 81.1389 9.33198 80.7372 9.33197C80.3114 9.33533 79.9002 9.17788 79.5861 8.89127ZM79.5861 25.4816V13.304C79.5721 13.1731 79.5876 13.0407 79.6315 12.9165C79.6754 12.7923 79.7467 12.6795 79.84 12.5864C79.9334 12.4932 80.0464 12.422 80.171 12.3781C80.2955 12.3341 80.4283 12.3185 80.5597 12.3324H80.9135C81.0448 12.3187 81.1775 12.3345 81.3019 12.3785C81.4262 12.4225 81.5392 12.4937 81.6324 12.5869C81.7256 12.68 81.7967 12.7927 81.8406 12.9168C81.8845 13.0409 81.8999 13.1732 81.8859 13.304V25.4804C81.8999 25.6112 81.8845 25.7435 81.8406 25.8676C81.7967 25.9917 81.7256 26.1044 81.6324 26.1976C81.5392 26.2907 81.4262 26.3619 81.3019 26.4059C81.1775 26.4499 81.0448 26.4657 80.9135 26.452H80.5597C80.4269 26.4733 80.2909 26.4629 80.1629 26.4216C80.0349 26.3803 79.9186 26.3093 79.8235 26.2145C79.7285 26.1196 79.6574 26.0036 79.6161 25.8759C79.5748 25.7483 79.5646 25.6139 79.5861 25.4816Z" fill="#0C233A"/>
<path d="M85.6973 25.1287V7.30311C85.6836 7.17221 85.6994 7.03992 85.7436 6.9159C85.7877 6.79187 85.8591 6.67924 85.9525 6.58624C86.0459 6.49324 86.159 6.4222 86.2835 6.37833C86.4079 6.33446 86.5407 6.31885 86.672 6.33265H87.0201C87.1514 6.31863 87.2842 6.33409 87.4088 6.37788C87.5334 6.42168 87.6465 6.49271 87.74 6.58576C87.8335 6.67881 87.9048 6.79153 87.9489 6.91566C87.993 7.03978 88.0087 7.17217 87.9948 7.30311V12.4203C88.8882 12.1745 89.8123 12.0577 90.739 12.0733C91.6843 12.0107 92.6321 12.1518 93.5178 12.4869C94.4036 12.822 95.2067 13.3433 95.8723 14.0153C97.1751 15.4978 97.8417 17.4309 97.7289 19.3985C97.7982 20.3813 97.6608 21.3677 97.3255 22.2945C96.9902 23.2213 96.4644 24.0681 95.7818 24.7806C94.2176 26.1372 92.185 26.8333 90.1147 26.7215C88.9213 26.711 87.733 26.5639 86.5733 26.2831C85.9525 26.194 85.688 25.8412 85.688 25.1345M87.9901 14.2802V24.4289C88.7408 24.6248 89.5154 24.7144 90.2911 24.695C91.0052 24.7665 91.7263 24.6766 92.4007 24.4318C93.0751 24.1871 93.6855 23.7939 94.1864 23.2815C95.0909 22.1632 95.5337 20.7431 95.4244 19.3106C95.4903 17.883 95.0522 16.4776 94.1864 15.3386C93.6799 14.8339 93.0687 14.4461 92.3957 14.2023C91.7228 13.9585 91.0044 13.8646 90.2911 13.9274C89.5151 13.9732 88.7449 14.0894 87.9901 14.2744" fill="#0C233A"/>
<path d="M100.926 25.4816V7.30201C100.912 7.17117 100.928 7.0389 100.972 6.91487C101.016 6.79084 101.087 6.67818 101.18 6.58515C101.274 6.49212 101.387 6.42107 101.511 6.37719C101.635 6.33331 101.768 6.31772 101.899 6.33155H102.253C102.384 6.3179 102.517 6.33364 102.641 6.3776C102.766 6.42156 102.878 6.49264 102.972 6.58565C103.065 6.67866 103.136 6.79124 103.18 6.91518C103.224 7.03912 103.239 7.17128 103.226 7.30201V25.5695C103.239 25.7002 103.224 25.8324 103.18 25.9563C103.136 26.0802 103.065 26.1928 102.972 26.2858C102.878 26.3788 102.766 26.4499 102.641 26.4939C102.517 26.5379 102.384 26.5536 102.253 26.5399H101.899C101.28 26.452 100.926 26.1883 100.926 25.4816Z" fill="#0C233A"/>
<path d="M107.034 8.89126C106.735 8.62297 106.539 8.25877 106.482 7.86189C106.424 7.46501 106.507 7.0605 106.718 6.71856C106.928 6.37662 107.252 6.11884 107.632 5.98997C108.013 5.8611 108.428 5.86926 108.803 6.01305C109.179 6.15683 109.492 6.42717 109.688 6.77712C109.885 7.12708 109.952 7.53456 109.879 7.92886C109.805 8.32315 109.596 8.67936 109.286 8.93566C108.977 9.19196 108.587 9.33217 108.185 9.33196C107.759 9.33452 107.348 9.17718 107.034 8.89126ZM107.034 25.4815V13.304C107.02 13.1731 107.035 13.0407 107.079 12.9165C107.123 12.7923 107.194 12.6795 107.288 12.5863C107.381 12.4932 107.494 12.422 107.619 12.3781C107.743 12.3341 107.876 12.3185 108.007 12.3324H108.361C108.493 12.3186 108.626 12.3342 108.75 12.3781C108.875 12.4221 108.988 12.4932 109.081 12.5863C109.175 12.6795 109.246 12.7923 109.29 12.9164C109.334 13.0406 109.35 13.173 109.336 13.304V25.4804C109.35 25.6114 109.334 25.7438 109.29 25.868C109.246 25.9921 109.175 26.1049 109.081 26.1981C108.988 26.2912 108.875 26.3623 108.75 26.4063C108.626 26.4502 108.493 26.4658 108.361 26.452H108.007C107.3 26.452 107.034 26.1883 107.034 25.4815Z" fill="#0C233A"/>
<path d="M123.942 24.864C123.306 25.4953 122.544 25.9864 121.706 26.3052C120.867 26.6241 119.971 26.7635 119.075 26.7146C118.178 26.7558 117.283 26.6127 116.445 26.2943C115.606 25.9759 114.843 25.4891 114.201 24.864C112.937 23.3294 112.304 21.3735 112.43 19.3917C112.304 17.4102 112.937 15.4548 114.201 13.9206C114.838 13.2885 115.601 12.797 116.44 12.4781C117.28 12.1593 118.177 12.0202 119.075 12.0699C119.97 12.0292 120.864 12.1724 121.701 12.4908C122.539 12.8092 123.302 13.2959 123.942 13.9206C125.206 15.4548 125.84 17.4101 125.714 19.3917C125.84 21.3736 125.207 23.3294 123.942 24.864ZM115.975 23.4516C116.372 23.8974 116.864 24.2477 117.416 24.4763C117.967 24.7049 118.564 24.8058 119.16 24.7714C119.757 24.7968 120.351 24.6914 120.902 24.4628C121.453 24.2341 121.947 23.8878 122.349 23.4482C123.224 22.2836 123.634 20.8369 123.5 19.3882C123.62 17.9412 123.211 16.4999 122.349 15.3294C121.952 14.8844 121.458 14.5349 120.906 14.3071C120.354 14.0793 119.757 13.9792 119.16 14.0143C118.565 13.9894 117.971 14.0951 117.42 14.3239C116.87 14.5527 116.377 14.8991 115.975 15.3387C115.1 16.5027 114.69 17.9491 114.824 19.3975C114.704 20.8449 115.112 22.287 115.975 23.4574" fill="#0C233A"/>
<path d="M129.253 21.5096V14.2734H127.835C127.216 14.2734 126.862 14.0085 126.862 13.4787V13.0357C126.862 12.5083 127.21 12.2422 127.835 12.2422H129.253V9.50668C129.24 9.376 129.255 9.24393 129.299 9.12009C129.343 8.99625 129.415 8.88376 129.508 8.7908C129.601 8.69784 129.714 8.62675 129.838 8.58272C129.962 8.53868 130.095 8.52279 130.226 8.53622H130.581C130.712 8.52264 130.845 8.5384 130.969 8.58235C131.093 8.6263 131.206 8.69734 131.3 8.79029C131.393 8.88325 131.464 8.99578 131.509 9.11971C131.553 9.24363 131.569 9.37583 131.555 9.50668V12.2422H135.893C136.512 12.2422 136.867 12.5071 136.867 13.0357V13.4787C136.867 14.0073 136.512 14.2734 135.893 14.2734H131.555V21.2447C131.474 22.2384 131.722 23.2312 132.262 24.0705C132.557 24.347 132.905 24.5602 133.286 24.6967C133.667 24.8332 134.072 24.8901 134.476 24.8639C134.891 24.8725 135.305 24.8427 135.714 24.7749C135.896 24.7603 136.075 24.7297 136.251 24.6835C136.443 24.6875 136.628 24.7492 136.784 24.8605C136.908 25.0166 136.998 25.1971 137.047 25.3902V25.4793C137.069 25.6282 137.098 25.7757 137.137 25.9211C137.137 26.2682 136.96 26.4509 136.518 26.5365C135.797 26.7279 135.052 26.8166 134.305 26.8002C130.94 26.7135 129.259 25.0363 129.259 21.5073" fill="#0C233A"/>
<path d="M150.061 24.599C150.158 24.7601 150.218 24.9406 150.237 25.1276C150.238 25.31 150.177 25.4873 150.065 25.6315C149.953 25.7756 149.796 25.8784 149.619 25.9234C148.302 26.4738 146.885 26.744 145.458 26.7169C144.493 26.7803 143.525 26.649 142.612 26.331C141.699 26.013 140.86 25.5149 140.144 24.8662C138.881 23.3315 138.249 21.3762 138.376 19.3951C138.234 17.4118 138.868 15.4507 140.144 13.9229C141.348 12.7504 142.96 12.0868 144.642 12.0706C146.325 12.0544 147.949 12.687 149.175 13.8361C150.328 15.3522 150.894 17.2319 150.769 19.1303C150.784 19.2381 150.774 19.348 150.74 19.4513C150.705 19.5546 150.647 19.6485 150.57 19.7256C150.492 19.8026 150.398 19.8606 150.295 19.895C150.191 19.9294 150.081 19.9392 149.973 19.9237H140.676C140.62 21.2152 141.064 22.4788 141.915 23.4539C142.373 23.9188 142.927 24.2782 143.539 24.5069C144.15 24.7357 144.805 24.8284 145.456 24.7783C146.612 24.7478 147.752 24.5087 148.821 24.0728C148.994 23.9996 149.172 23.9404 149.354 23.8958C149.519 23.9502 149.669 24.0423 149.791 24.1649C149.914 24.2874 150.006 24.4369 150.061 24.6014M140.766 18.1598H148.646C148.651 17.0253 148.242 15.9278 147.495 15.0715C147.129 14.6947 146.687 14.3981 146.2 14.2005C145.712 14.003 145.188 13.9088 144.662 13.924C144.155 13.8941 143.647 13.9735 143.173 14.1567C142.7 14.3399 142.271 14.6227 141.917 14.9859C141.17 15.8757 140.762 17.0004 140.766 18.161" fill="#0C233A"/>
<path d="M163.781 24.7749C163.879 24.936 163.939 25.1171 163.957 25.3046C163.957 25.4871 163.896 25.6644 163.784 25.8086C163.672 25.9527 163.515 26.0554 163.337 26.1004C162.277 26.5575 161.127 26.7683 159.972 26.7169C159.054 26.7788 158.133 26.6367 157.277 26.3009C156.42 25.965 155.649 25.4438 155.019 24.7749C153.797 23.2558 153.196 21.3326 153.336 19.3905C153.212 17.4237 153.81 15.479 155.019 13.9194C155.65 13.2507 156.422 12.7298 157.279 12.3944C158.136 12.059 159.057 11.9173 159.976 11.9797C161.13 11.9289 162.281 12.1401 163.341 12.5973C163.518 12.6419 163.675 12.7442 163.788 12.8879C163.9 13.0317 163.961 13.2087 163.961 13.3908C163.974 13.5715 163.944 13.7529 163.872 13.9194V14.005C163.695 14.4469 163.429 14.6215 163.163 14.6215C162.982 14.5769 162.805 14.5181 162.633 14.4457C161.821 14.1008 160.947 13.9203 160.064 13.9148C157.144 13.9148 155.639 15.6822 155.639 19.2991C155.639 22.9161 157.147 24.6823 160.064 24.6823C160.947 24.6768 161.821 24.4964 162.633 24.1514C162.805 24.0796 162.982 24.0212 163.163 23.9768C163.429 24.1896 163.641 24.4613 163.783 24.7702" fill="#0C233A"/>
<path d="M166.704 14.1867C166.605 14.0252 166.545 13.8437 166.526 13.6557C166.526 13.4735 166.587 13.2966 166.699 13.1527C166.812 13.0089 166.969 12.9063 167.146 12.8611C168.465 12.3196 169.88 12.0497 171.307 12.0676C172.089 11.9834 172.88 12.0659 173.628 12.3096C174.376 12.5533 175.064 12.9526 175.645 13.4811C176.646 14.758 177.121 16.3669 176.974 17.9806V25.1289C176.993 25.4089 176.902 25.6854 176.72 25.8996C176.538 26.1139 176.279 26.249 175.999 26.2763C174.549 26.6217 173.063 26.7998 171.572 26.8072C167.498 26.8072 165.376 25.3035 165.376 22.3054C165.339 21.658 165.465 21.0116 165.743 20.4255C166.022 19.8394 166.443 19.3324 166.969 18.951C168.311 18.0931 169.894 17.6902 171.484 17.8024C172.563 17.7804 173.639 17.9296 174.67 18.2443V17.8024C174.731 17.2964 174.683 16.7833 174.531 16.2968C174.379 15.8103 174.126 15.3612 173.787 14.979C173.073 14.374 172.156 14.0586 171.22 14.0953C170.068 14.0782 168.924 14.2881 167.855 14.7129C167.682 14.7866 167.504 14.8458 167.322 14.8899C167.054 14.7176 166.84 14.4735 166.705 14.1855M174.848 24.5089V20.0082C173.899 19.7413 172.913 19.6242 171.927 19.6612C169.182 19.6612 167.856 20.5426 167.856 22.3089C167.839 22.7008 167.918 23.091 168.088 23.4448C168.258 23.7987 168.513 24.1053 168.83 24.3377C169.815 24.8344 170.919 25.0483 172.018 24.9554C172.975 24.9153 173.925 24.7674 174.849 24.5147" fill="#0C233A"/>
</svg>
